<svg width="108" height="108" viewBox="0 0 108 108" fill="none" xmlns="http://www.w3.org/2000/svg">
<g id="fi-rs-home-location-alt" clip-path="url(#clip0_104_20)" filter="url(#filter0_d_104_20)">
<path id="Vector" d="M83.1667 58.3619C83.167 53.5634 81.9835 48.8389 79.7209 44.6073C77.4583 40.3758 74.1867 36.7678 70.196 34.1032C66.2052 31.4387 61.6188 29.7999 56.8431 29.3321C52.0675 28.8644 47.2502 29.5821 42.8183 31.4218C38.3864 33.2614 34.4769 36.166 31.4363 39.8782C28.3957 43.5904 26.318 47.9954 25.3873 52.7028C24.4565 57.4102 24.7017 62.2745 26.1008 66.8645C27.5 71.4545 30.01 75.6283 33.4084 79.0161L54 99.1661L74.625 78.9952C77.3433 76.2923 79.4979 73.0767 80.9642 69.5348C82.4304 65.9929 83.1791 62.1953 83.1667 58.3619ZM54 87.4994L39.2667 73.0911C36.3545 70.1789 34.3708 66.4689 33.5661 62.4298C32.7615 58.3908 33.1721 54.2038 34.746 50.398C36.3199 46.5921 38.9865 43.3381 42.4089 41.0471C45.8313 38.7561 49.856 37.5309 53.9745 37.5263C58.0929 37.5216 62.1203 38.7377 65.5479 41.021C68.9755 43.3042 71.6495 46.5522 73.232 50.3545C74.8145 54.1567 75.2345 58.3428 74.439 62.3837C73.6435 66.4245 71.6682 70.139 68.7626 73.0577L54 87.4994ZM54 45.8327C51.5278 45.8327 49.111 46.5659 47.0554 47.9394C44.9998 49.3129 43.3976 51.2651 42.4515 53.5492C41.5055 55.8333 41.2579 58.3466 41.7402 60.7714C42.2225 63.1961 43.4131 65.4234 45.1612 67.1716C46.9094 68.9197 49.1367 70.1102 51.5614 70.5926C53.9862 71.0749 56.4995 70.8273 58.7836 69.8812C61.0677 68.9351 63.0199 67.333 64.3934 65.2774C65.7669 63.2218 66.5 60.805 66.5 58.3327C66.5 55.0175 65.1831 51.8381 62.8389 49.4939C60.4947 47.1497 57.3153 45.8327 54 45.8327ZM104 41.8577V99.9994H65.0542L73.5834 91.6661H95.6667V41.8452C95.669 41.2126 95.526 40.5879 95.2486 40.0193C94.9711 39.4508 94.5668 38.9536 94.0667 38.5661L56.5667 9.21607C55.8339 8.64301 54.9303 8.33168 54 8.33168C53.0698 8.33168 52.1662 8.64301 51.4334 9.21607L13.9334 38.5577C13.4329 38.9467 13.0284 39.4454 12.751 40.0154C12.4736 40.5853 12.3307 41.2114 12.3334 41.8452V91.6661H34.4167L42.9375 99.9994H4.00004V41.8452C3.99505 39.9469 4.42465 38.0727 5.25593 36.3661C6.08721 34.6594 7.29812 33.1657 8.79588 31.9994L46.2959 2.65774C48.4958 0.934461 51.2097 -0.00195312 54.0042 -0.00195312C56.7987 -0.00195312 59.5126 0.934461 61.7125 2.65774L99.2125 32.0077C100.709 33.1732 101.918 34.6658 102.748 36.371C103.578 38.0762 104.006 39.9488 104 41.8452V41.8577Z" fill="#D4A373"/>
</g>
<defs>
<filter id="filter0_d_104_20" x="0" y="0" width="108" height="108" filterUnits="userSpaceOnUse" color-interpolation-filters="sRGB">
<feFlood flood-opacity="0" result="BackgroundImageFix"/>
<feColorMatrix in="SourceAlpha" type="matrix" values="0 0 0 0 0 0 0 0 0 0 0 0 0 0 0 0 0 0 127 0" result="hardAlpha"/>
<feOffset dy="4"/>
<feGaussianBlur stdDeviation="2"/>
<feComposite in2="hardAlpha" operator="out"/>
<feColorMatrix type="matrix" values="0 0 0 0 0 0 0 0 0 0 0 0 0 0 0 0 0 0 0.25 0"/>
<feBlend mode="normal" in2="BackgroundImageFix" result="effect1_dropShadow_104_20"/>
<feBlend mode="normal" in="SourceGraphic" in2="effect1_dropShadow_104_20" result="shape"/>
</filter>
<clipPath id="clip0_104_20">
<rect width="100" height="100" fill="white" transform="translate(4)"/>
</clipPath>
</defs>
</svg>
