<svg width="50" height="45" viewBox="0 0 50 45" fill="none" xmlns="http://www.w3.org/2000/svg">
<g id="icon-&#208;&#187;&#208;&#184;&#209;&#135;&#208;&#189;&#209;&#139;&#208;&#185; &#208;&#186;&#208;&#176;&#208;&#177;&#208;&#184;&#208;&#189;&#208;&#181;&#209;&#130;" clip-path="url(#clip0_17_566)">
<path id="Vector" d="M25 22.4999C27.4723 22.4999 29.889 21.8401 31.9446 20.6039C34.0002 19.3677 35.6024 17.6107 36.5485 15.5551C37.4946 13.4994 37.7421 11.2374 37.2598 9.05512C36.7775 6.87283 35.587 4.86827 33.8388 3.29493C32.0907 1.72159 29.8634 0.650132 27.4386 0.216049C25.0139 -0.218035 22.5005 0.0047524 20.2165 0.856238C17.9324 1.70772 15.9801 3.14966 14.6066 4.99972C13.2331 6.84977 12.5 9.02484 12.5 11.2499C12.5033 14.2327 13.8213 17.0924 16.1648 19.2015C18.5083 21.3107 21.6858 22.4969 25 22.4999ZM25 3.74988C26.6482 3.74988 28.2593 4.18975 29.6298 5.01386C31.0002 5.83797 32.0683 7.00931 32.699 8.37976C33.3297 9.7502 33.4948 11.2582 33.1732 12.7131C32.8517 14.1679 32.058 15.5043 30.8926 16.5532C29.7271 17.6021 28.2423 18.3164 26.6258 18.6058C25.0092 18.8952 23.3337 18.7466 21.811 18.179C20.2883 17.6113 18.9868 16.65 18.0711 15.4167C17.1554 14.1833 16.6667 12.7332 16.6667 11.2499C16.6667 9.26076 17.5446 7.3531 19.1074 5.94658C20.6702 4.54006 22.7899 3.74988 25 3.74988Z" fill="#404B34"/>
<path id="Vector_2" d="M25 26.25C20.0289 26.255 15.2629 28.0345 11.7478 31.1981C8.23273 34.3617 6.25551 38.651 6.25 43.125C6.25 43.6223 6.46949 44.0992 6.86019 44.4508C7.25089 44.8025 7.7808 45 8.33333 45C8.88587 45 9.41577 44.8025 9.80647 44.4508C10.1972 44.0992 10.4167 43.6223 10.4167 43.125C10.4167 39.644 11.9531 36.3056 14.688 33.8442C17.4229 31.3828 21.1323 30 25 30C28.8677 30 32.5771 31.3828 35.312 33.8442C38.0469 36.3056 39.5833 39.644 39.5833 43.125C39.5833 43.6223 39.8028 44.0992 40.1935 44.4508C40.5842 44.8025 41.1141 45 41.6667 45C42.2192 45 42.7491 44.8025 43.1398 44.4508C43.5305 44.0992 43.75 43.6223 43.75 43.125C43.7445 38.651 41.7673 34.3617 38.2522 31.1981C34.737 28.0345 29.9711 26.255 25 26.25Z" fill="#404B34"/>
</g>
<defs>
<clipPath id="clip0_17_566">
<rect width="50" height="45" fill="white"/>
</clipPath>
</defs>
</svg>
