<svg width="416" height="72" viewBox="0 0 416 72" fill="none" xmlns="http://www.w3.org/2000/svg">
<line x1="8.74228e-08" y1="15" x2="416" y2="15" stroke="#404B34" stroke-width="2"/>
<circle cx="80" cy="16" r="16" fill="white"/>
<circle cx="80" cy="16" r="15.5" stroke="#404B34" stroke-opacity="0.6"/>
<path d="M77.608 11.76V10.432H80.616V22H79.144V11.76H77.608Z" fill="#404B34" fill-opacity="0.6"/>
<path d="M33.5139 52V42.718H40.4819V52H39.3249V43.745H34.6839V52H33.5139ZM45.5577 44.902C46.1557 44.902 46.6671 45.032 47.0917 45.292C47.5251 45.552 47.8544 45.9203 48.0797 46.397C48.3137 46.865 48.4307 47.4153 48.4307 48.048V48.737H43.6597C43.6771 49.5257 43.8764 50.128 44.2577 50.544C44.6477 50.9513 45.1894 51.155 45.8827 51.155C46.3247 51.155 46.7147 51.116 47.0527 51.038C47.3994 50.9513 47.7547 50.83 48.1187 50.674V51.675C47.7634 51.831 47.4124 51.9437 47.0657 52.013C46.7191 52.091 46.3074 52.13 45.8307 52.13C45.1721 52.13 44.5871 51.9957 44.0757 51.727C43.5731 51.4583 43.1787 51.0597 42.8927 50.531C42.6154 49.9937 42.4767 49.3393 42.4767 48.568C42.4767 47.8053 42.6024 47.151 42.8537 46.605C43.1137 46.059 43.4734 45.6387 43.9327 45.344C44.4007 45.0493 44.9424 44.902 45.5577 44.902ZM45.5447 45.838C44.9987 45.838 44.5654 46.0157 44.2447 46.371C43.9327 46.7177 43.7464 47.203 43.6857 47.827H47.2347C47.2347 47.4283 47.1741 47.0817 47.0527 46.787C46.9314 46.4923 46.7451 46.2627 46.4937 46.098C46.2511 45.9247 45.9347 45.838 45.5447 45.838ZM53.5196 44.902C54.3776 44.902 55.0666 45.201 55.5866 45.799C56.1153 46.397 56.3796 47.2983 56.3796 48.503C56.3796 49.2917 56.2583 49.959 56.0156 50.505C55.7816 51.0423 55.4479 51.4497 55.0146 51.727C54.5899 51.9957 54.0873 52.13 53.5066 52.13C53.1513 52.13 52.8349 52.0823 52.5576 51.987C52.2803 51.8917 52.0419 51.7703 51.8426 51.623C51.6519 51.467 51.4873 51.298 51.3486 51.116H51.2706C51.2879 51.2633 51.3053 51.4497 51.3226 51.675C51.3399 51.9003 51.3486 52.0953 51.3486 52.26V55.12H50.2046V45.032H51.1406L51.2966 45.981H51.3486C51.4873 45.7817 51.6519 45.5997 51.8426 45.435C52.0419 45.2703 52.2759 45.1403 52.5446 45.045C52.8219 44.9497 53.1469 44.902 53.5196 44.902ZM53.3116 45.864C52.8436 45.864 52.4666 45.955 52.1806 46.137C51.8946 46.3103 51.6866 46.5747 51.5566 46.93C51.4266 47.2853 51.3573 47.736 51.3486 48.282V48.503C51.3486 49.075 51.4093 49.5603 51.5306 49.959C51.6519 50.3577 51.8556 50.661 52.1416 50.869C52.4363 51.077 52.8349 51.181 53.3376 51.181C53.7623 51.181 54.1089 51.064 54.3776 50.83C54.6549 50.596 54.8586 50.2797 54.9886 49.881C55.1273 49.4737 55.1966 49.01 55.1966 48.49C55.1966 47.6927 55.0406 47.0557 54.7286 46.579C54.4253 46.1023 53.9529 45.864 53.3116 45.864ZM60.9977 52.13C60.3823 52.13 59.832 52.0043 59.3467 51.753C58.87 51.5017 58.493 51.1117 58.2157 50.583C57.947 50.0543 57.8127 49.3783 57.8127 48.555C57.8127 47.697 57.9557 46.9993 58.2417 46.462C58.5277 45.9247 58.9133 45.5303 59.3987 45.279C59.8927 45.0277 60.4517 44.902 61.0757 44.902C61.431 44.902 61.7733 44.941 62.1027 45.019C62.432 45.0883 62.7007 45.175 62.9087 45.279L62.5577 46.228C62.3497 46.15 62.107 46.0763 61.8297 46.007C61.5523 45.9377 61.2923 45.903 61.0497 45.903C60.5817 45.903 60.196 46.0027 59.8927 46.202C59.5893 46.4013 59.364 46.696 59.2167 47.086C59.0693 47.476 58.9957 47.9613 58.9957 48.542C58.9957 49.0967 59.0693 49.569 59.2167 49.959C59.364 50.349 59.585 50.6437 59.8797 50.843C60.1743 51.0423 60.5427 51.142 60.9847 51.142C61.366 51.142 61.6997 51.103 61.9857 51.025C62.2803 50.947 62.549 50.8517 62.7917 50.739V51.753C62.5577 51.8743 62.2977 51.9653 62.0117 52.026C61.7343 52.0953 61.3963 52.13 60.9977 52.13ZM70.5067 48.503C70.5067 49.0837 70.4288 49.5993 70.2728 50.05C70.1254 50.492 69.9088 50.869 69.6228 51.181C69.3454 51.493 69.0031 51.7313 68.5958 51.896C68.1971 52.052 67.7508 52.13 67.2568 52.13C66.7974 52.13 66.3728 52.052 65.9828 51.896C65.5928 51.7313 65.2548 51.493 64.9688 51.181C64.6828 50.869 64.4574 50.492 64.2928 50.05C64.1368 49.5993 64.0588 49.0837 64.0588 48.503C64.0588 47.7317 64.1888 47.0817 64.4488 46.553C64.7088 46.0157 65.0814 45.6083 65.5668 45.331C66.0521 45.045 66.6284 44.902 67.2958 44.902C67.9284 44.902 68.4831 45.045 68.9598 45.331C69.4451 45.6083 69.8221 46.0157 70.0908 46.553C70.3681 47.0817 70.5067 47.7317 70.5067 48.503ZM65.2418 48.503C65.2418 49.049 65.3111 49.5257 65.4498 49.933C65.5971 50.3317 65.8224 50.6393 66.1258 50.856C66.4291 51.0727 66.8148 51.181 67.2828 51.181C67.7508 51.181 68.1364 51.0727 68.4398 50.856C68.7431 50.6393 68.9641 50.3317 69.1028 49.933C69.2501 49.5257 69.3238 49.049 69.3238 48.503C69.3238 47.9483 69.2501 47.476 69.1028 47.086C68.9554 46.696 68.7301 46.397 68.4268 46.189C68.1321 45.9723 67.7464 45.864 67.2698 45.864C66.5591 45.864 66.0434 46.098 65.7228 46.566C65.4021 47.034 65.2418 47.6797 65.2418 48.503ZM73.4638 45.032V47.931H77.2468V45.032H78.3908V52H77.2468V48.893H73.4638V52H72.3198V45.032H73.4638ZM83.2362 44.915C84.0855 44.915 84.7139 45.1013 85.1212 45.474C85.5285 45.8467 85.7322 46.4403 85.7322 47.255V52H84.9002L84.6792 51.012H84.6272C84.4279 51.2633 84.2199 51.4757 84.0032 51.649C83.7952 51.8137 83.5525 51.935 83.2752 52.013C83.0065 52.091 82.6772 52.13 82.2872 52.13C81.8712 52.13 81.4942 52.0563 81.1562 51.909C80.8269 51.7617 80.5669 51.5363 80.3762 51.233C80.1855 50.921 80.0902 50.531 80.0902 50.063C80.0902 49.3697 80.3632 48.8367 80.9092 48.464C81.4552 48.0827 82.2959 47.8747 83.4312 47.84L84.6142 47.801V47.385C84.6142 46.8043 84.4885 46.4013 84.2372 46.176C83.9859 45.9507 83.6305 45.838 83.1712 45.838C82.8072 45.838 82.4605 45.8943 82.1312 46.007C81.8019 46.111 81.4942 46.2323 81.2082 46.371L80.8572 45.513C81.1605 45.3483 81.5202 45.2097 81.9362 45.097C82.3522 44.9757 82.7855 44.915 83.2362 44.915ZM83.5742 48.633C82.7075 48.6677 82.1052 48.8063 81.7672 49.049C81.4379 49.2917 81.2732 49.634 81.2732 50.076C81.2732 50.466 81.3902 50.752 81.6242 50.934C81.8669 51.116 82.1745 51.207 82.5472 51.207C83.1365 51.207 83.6262 51.0467 84.0162 50.726C84.4062 50.3967 84.6012 49.894 84.6012 49.218V48.594L83.5742 48.633ZM93.1883 52H92.0313V45.981H89.9773C89.8906 47.0817 89.7823 48.022 89.6523 48.802C89.5223 49.5733 89.3576 50.2017 89.1583 50.687C88.959 51.1723 88.7206 51.5277 88.4433 51.753C88.166 51.9783 87.841 52.091 87.4683 52.091C87.3556 52.091 87.243 52.0823 87.1303 52.065C87.0263 52.0563 86.9396 52.0347 86.8703 52V51.142C86.9223 51.1593 86.9786 51.1723 87.0393 51.181C87.1 51.1897 87.1606 51.194 87.2213 51.194C87.412 51.194 87.5853 51.116 87.7413 50.96C87.8973 50.804 88.036 50.5657 88.1573 50.245C88.2873 49.9243 88.4043 49.5213 88.5083 49.036C88.6123 48.542 88.7033 47.9613 88.7813 47.294C88.8593 46.6267 88.9286 45.8727 88.9893 45.032H93.1883V52ZM98.6109 47.892C99.2176 47.892 99.7203 47.9657 100.119 48.113C100.518 48.2603 100.817 48.4813 101.016 48.776C101.224 49.062 101.328 49.426 101.328 49.868C101.328 50.3013 101.228 50.6783 101.029 50.999C100.838 51.3197 100.539 51.5667 100.132 51.74C99.7246 51.9133 99.2003 52 98.5589 52H95.3999V45.032H96.5439V47.892H98.6109ZM100.184 49.933C100.184 49.5083 100.032 49.2223 99.7289 49.075C99.4343 48.919 99.0183 48.841 98.4809 48.841H96.5439V51.077H98.5069C98.9923 51.077 99.3909 50.9903 99.7029 50.817C100.024 50.6437 100.184 50.349 100.184 49.933ZM104.263 45.032V47.931H108.046V45.032H109.19V52H108.046V48.893H104.263V52H103.119V45.032H104.263ZM111.396 52V45.032H112.54V47.892H114.347C114.954 47.892 115.452 47.9657 115.842 48.113C116.232 48.2603 116.522 48.4813 116.713 48.776C116.904 49.062 116.999 49.426 116.999 49.868C116.999 50.3013 116.904 50.6783 116.713 50.999C116.531 51.3197 116.241 51.5667 115.842 51.74C115.452 51.9133 114.936 52 114.295 52H111.396ZM114.191 51.077C114.685 51.077 115.088 50.9947 115.4 50.83C115.712 50.6567 115.868 50.3577 115.868 49.933C115.868 49.5083 115.725 49.2223 115.439 49.075C115.153 48.919 114.741 48.841 114.204 48.841H112.54V51.077H114.191ZM118.156 52V45.032H119.3V52H118.156ZM124.205 44.902C124.803 44.902 125.315 45.032 125.739 45.292C126.173 45.552 126.502 45.9203 126.727 46.397C126.961 46.865 127.078 47.4153 127.078 48.048V48.737H122.307C122.325 49.5257 122.524 50.128 122.905 50.544C123.295 50.9513 123.837 51.155 124.53 51.155C124.972 51.155 125.362 51.116 125.7 51.038C126.047 50.9513 126.402 50.83 126.766 50.674V51.675C126.411 51.831 126.06 51.9437 125.713 52.013C125.367 52.091 124.955 52.13 124.478 52.13C123.82 52.13 123.235 51.9957 122.723 51.727C122.221 51.4583 121.826 51.0597 121.54 50.531C121.263 49.9937 121.124 49.3393 121.124 48.568C121.124 47.8053 121.25 47.151 121.501 46.605C121.761 46.059 122.121 45.6387 122.58 45.344C123.048 45.0493 123.59 44.902 124.205 44.902ZM124.192 45.838C123.646 45.838 123.213 46.0157 122.892 46.371C122.58 46.7177 122.394 47.203 122.333 47.827H125.882C125.882 47.4283 125.822 47.0817 125.7 46.787C125.579 46.4923 125.393 46.2627 125.141 46.098C124.899 45.9247 124.582 45.838 124.192 45.838ZM61.8532 61.032V67.038H62.8672V70.418H61.7622V68H56.9132V70.418H55.8212V67.038H56.3802C56.7789 66.4833 57.1082 65.881 57.3682 65.231C57.6369 64.5723 57.8362 63.8877 57.9662 63.177C58.1049 62.4577 58.1786 61.7427 58.1872 61.032H61.8532ZM59.2012 61.929C59.1666 62.5183 59.0756 63.1293 58.9282 63.762C58.7809 64.386 58.5902 64.984 58.3562 65.556C58.1309 66.128 57.8666 66.622 57.5632 67.038H60.7482V61.929H59.2012ZM66.8719 60.915C67.7213 60.915 68.3496 61.1013 68.7569 61.474C69.1643 61.8467 69.3679 62.4403 69.3679 63.255V68H68.5359L68.3149 67.012H68.2629C68.0636 67.2633 67.8556 67.4757 67.6389 67.649C67.4309 67.8137 67.1883 67.935 66.9109 68.013C66.6423 68.091 66.3129 68.13 65.9229 68.13C65.5069 68.13 65.1299 68.0563 64.7919 67.909C64.4626 67.7617 64.2026 67.5363 64.0119 67.233C63.8213 66.921 63.7259 66.531 63.7259 66.063C63.7259 65.3697 63.9989 64.8367 64.5449 64.464C65.0909 64.0827 65.9316 63.8747 67.0669 63.84L68.2499 63.801V63.385C68.2499 62.8043 68.1243 62.4013 67.8729 62.176C67.6216 61.9507 67.2663 61.838 66.8069 61.838C66.4429 61.838 66.0963 61.8943 65.7669 62.007C65.4376 62.111 65.1299 62.2323 64.8439 62.371L64.4929 61.513C64.7963 61.3483 65.1559 61.2097 65.5719 61.097C65.9879 60.9757 66.4213 60.915 66.8719 60.915ZM67.2099 64.633C66.3433 64.6677 65.7409 64.8063 65.4029 65.049C65.0736 65.2917 64.9089 65.634 64.9089 66.076C64.9089 66.466 65.0259 66.752 65.2599 66.934C65.5026 67.116 65.8103 67.207 66.1829 67.207C66.7723 67.207 67.2619 67.0467 67.6519 66.726C68.0419 66.3967 68.2369 65.894 68.2369 65.218V64.594L67.2099 64.633ZM72.664 61.032V63.931H76.447V61.032H77.591V68H76.447V64.893H72.664V68H71.52V61.032H72.664ZM80.9414 61.032V63.931H84.7244V61.032H85.8684V68H84.7244V64.893H80.9414V68H79.7974V61.032H80.9414ZM88.0747 68V61.032H89.2187V63.892H91.0257C91.6324 63.892 92.1307 63.9657 92.5207 64.113C92.9107 64.2603 93.2011 64.4813 93.3917 64.776C93.5824 65.062 93.6777 65.426 93.6777 65.868C93.6777 66.3013 93.5824 66.6783 93.3917 66.999C93.2097 67.3197 92.9194 67.5667 92.5207 67.74C92.1307 67.9133 91.6151 68 90.9737 68H88.0747ZM90.8697 67.077C91.3637 67.077 91.7667 66.9947 92.0787 66.83C92.3907 66.6567 92.5467 66.3577 92.5467 65.933C92.5467 65.5083 92.4037 65.2223 92.1177 65.075C91.8317 64.919 91.4201 64.841 90.8827 64.841H89.2187V67.077H90.8697ZM94.8347 68V61.032H95.9787V68H94.8347ZM100.884 60.902C101.482 60.902 101.993 61.032 102.418 61.292C102.851 61.552 103.181 61.9203 103.406 62.397C103.64 62.865 103.757 63.4153 103.757 64.048V64.737H98.9859C99.0032 65.5257 99.2026 66.128 99.5839 66.544C99.9739 66.9513 100.516 67.155 101.209 67.155C101.651 67.155 102.041 67.116 102.379 67.038C102.726 66.9513 103.081 66.83 103.445 66.674V67.675C103.09 67.831 102.739 67.9437 102.392 68.013C102.045 68.091 101.634 68.13 101.157 68.13C100.498 68.13 99.9132 67.9957 99.4019 67.727C98.8992 67.4583 98.5049 67.0597 98.2189 66.531C97.9416 65.9937 97.8029 65.3393 97.8029 64.568C97.8029 63.8053 97.9286 63.151 98.1799 62.605C98.4399 62.059 98.7996 61.6387 99.2589 61.344C99.7269 61.0493 100.269 60.902 100.884 60.902ZM100.871 61.838C100.325 61.838 99.8916 62.0157 99.5709 62.371C99.2589 62.7177 99.0726 63.203 99.0119 63.827H102.561C102.561 63.4283 102.5 63.0817 102.379 62.787C102.258 62.4923 102.071 62.2627 101.82 62.098C101.577 61.9247 101.261 61.838 100.871 61.838Z" fill="#404B34" fill-opacity="0.6"/>
<circle cx="208" cy="16" r="16" fill="white"/>
<circle cx="208" cy="16" r="15.5" stroke="#404B34" stroke-opacity="0.6"/>
<path d="M203.816 20.832C205.171 19.744 206.232 18.8533 207 18.16C207.768 17.456 208.413 16.7253 208.936 15.968C209.469 15.2 209.736 14.448 209.736 13.712C209.736 13.0187 209.565 12.4747 209.224 12.08C208.893 11.6747 208.355 11.472 207.608 11.472C206.883 11.472 206.317 11.7013 205.912 12.16C205.517 12.608 205.304 13.2107 205.272 13.968H203.864C203.907 12.7733 204.269 11.8507 204.952 11.2C205.635 10.5493 206.515 10.224 207.592 10.224C208.691 10.224 209.56 10.528 210.2 11.136C210.851 11.744 211.176 12.5813 211.176 13.648C211.176 14.5333 210.909 15.3973 210.376 16.24C209.853 17.072 209.256 17.808 208.584 18.448C207.912 19.0773 207.053 19.8133 206.008 20.656H211.512V21.872H203.816V20.832Z" fill="#404B34" fill-opacity="0.6"/>
<path d="M177.808 52H176.404L172.205 47.294V52H171.035V42.718H172.205V47.216L176.3 42.718H177.626L173.596 47.229L177.808 52ZM184.974 48.503C184.974 49.0837 184.896 49.5993 184.74 50.05C184.592 50.492 184.376 50.869 184.09 51.181C183.812 51.493 183.47 51.7313 183.063 51.896C182.664 52.052 182.218 52.13 181.724 52.13C181.264 52.13 180.84 52.052 180.45 51.896C180.06 51.7313 179.722 51.493 179.436 51.181C179.15 50.869 178.924 50.492 178.76 50.05C178.604 49.5993 178.526 49.0837 178.526 48.503C178.526 47.7317 178.656 47.0817 178.916 46.553C179.176 46.0157 179.548 45.6083 180.034 45.331C180.519 45.045 181.095 44.902 181.763 44.902C182.395 44.902 182.95 45.045 183.427 45.331C183.912 45.6083 184.289 46.0157 184.558 46.553C184.835 47.0817 184.974 47.7317 184.974 48.503ZM179.709 48.503C179.709 49.049 179.778 49.5257 179.917 49.933C180.064 50.3317 180.289 50.6393 180.593 50.856C180.896 51.0727 181.282 51.181 181.75 51.181C182.218 51.181 182.603 51.0727 182.907 50.856C183.21 50.6393 183.431 50.3317 183.57 49.933C183.717 49.5257 183.791 49.049 183.791 48.503C183.791 47.9483 183.717 47.476 183.57 47.086C183.422 46.696 183.197 46.397 182.894 46.189C182.599 45.9723 182.213 45.864 181.737 45.864C181.026 45.864 180.51 46.098 180.19 46.566C179.869 47.034 179.709 47.6797 179.709 48.503ZM187.931 45.032V47.931H191.714V45.032H192.858V52H191.714V48.893H187.931V52H186.787V45.032H187.931ZM199.874 45.994H197.599V52H196.468V45.994H194.219V45.032H199.874V45.994ZM203.886 44.915C204.735 44.915 205.363 45.1013 205.771 45.474C206.178 45.8467 206.382 46.4403 206.382 47.255V52H205.55L205.329 51.012H205.277C205.077 51.2633 204.869 51.4757 204.653 51.649C204.445 51.8137 204.202 51.935 203.925 52.013C203.656 52.091 203.327 52.13 202.937 52.13C202.521 52.13 202.144 52.0563 201.806 51.909C201.476 51.7617 201.216 51.5363 201.026 51.233C200.835 50.921 200.74 50.531 200.74 50.063C200.74 49.3697 201.013 48.8367 201.559 48.464C202.105 48.0827 202.945 47.8747 204.081 47.84L205.264 47.801V47.385C205.264 46.8043 205.138 46.4013 204.887 46.176C204.635 45.9507 204.28 45.838 203.821 45.838C203.457 45.838 203.11 45.8943 202.781 46.007C202.451 46.111 202.144 46.2323 201.858 46.371L201.507 45.513C201.81 45.3483 202.17 45.2097 202.586 45.097C203.002 44.9757 203.435 44.915 203.886 44.915ZM204.224 48.633C203.357 48.6677 202.755 48.8063 202.417 49.049C202.087 49.2917 201.923 49.634 201.923 50.076C201.923 50.466 202.04 50.752 202.274 50.934C202.516 51.116 202.824 51.207 203.197 51.207C203.786 51.207 204.276 51.0467 204.666 50.726C205.056 50.3967 205.251 49.894 205.251 49.218V48.594L204.224 48.633ZM212.655 45.032H213.903L210.926 48.386L214.15 52H212.824L209.678 48.464V52H208.534V45.032H209.678V48.412L212.655 45.032ZM220.225 45.994H217.95V52H216.819V45.994H214.57V45.032H220.225V45.994ZM222.741 45.032V47.931H226.524V45.032H227.668V52H226.524V48.893H222.741V52H221.597V45.032H222.741ZM229.875 52V45.032H231.019V47.892H232.826C233.432 47.892 233.931 47.9657 234.321 48.113C234.711 48.2603 235.001 48.4813 235.192 48.776C235.382 49.062 235.478 49.426 235.478 49.868C235.478 50.3013 235.382 50.6783 235.192 50.999C235.01 51.3197 234.719 51.5667 234.321 51.74C233.931 51.9133 233.415 52 232.774 52H229.875ZM232.67 51.077C233.164 51.077 233.567 50.9947 233.879 50.83C234.191 50.6567 234.347 50.3577 234.347 49.933C234.347 49.5083 234.204 49.2223 233.918 49.075C233.632 48.919 233.22 48.841 232.683 48.841H231.019V51.077H232.67ZM236.635 52V45.032H237.779V52H236.635ZM242.684 44.902C243.282 44.902 243.793 45.032 244.218 45.292C244.651 45.552 244.98 45.9203 245.206 46.397C245.44 46.865 245.557 47.4153 245.557 48.048V48.737H240.786C240.803 49.5257 241.002 50.128 241.384 50.544C241.774 50.9513 242.315 51.155 243.009 51.155C243.451 51.155 243.841 51.116 244.179 51.038C244.525 50.9513 244.881 50.83 245.245 50.674V51.675C244.889 51.831 244.538 51.9437 244.192 52.013C243.845 52.091 243.433 52.13 242.957 52.13C242.298 52.13 241.713 51.9957 241.202 51.727C240.699 51.4583 240.305 51.0597 240.019 50.531C239.741 49.9937 239.603 49.3393 239.603 48.568C239.603 47.8053 239.728 47.151 239.98 46.605C240.24 46.059 240.599 45.6387 241.059 45.344C241.527 45.0493 242.068 44.902 242.684 44.902ZM242.671 45.838C242.125 45.838 241.691 46.0157 241.371 46.371C241.059 46.7177 240.872 47.203 240.812 47.827H244.361C244.361 47.4283 244.3 47.0817 244.179 46.787C244.057 46.4923 243.871 46.2627 243.62 46.098C243.377 45.9247 243.061 45.838 242.671 45.838ZM189.853 61.032V67.038H190.867V70.418H189.762V68H184.913V70.418H183.821V67.038H184.38C184.779 66.4833 185.108 65.881 185.368 65.231C185.637 64.5723 185.836 63.8877 185.966 63.177C186.105 62.4577 186.179 61.7427 186.187 61.032H189.853ZM187.201 61.929C187.167 62.5183 187.076 63.1293 186.928 63.762C186.781 64.386 186.59 64.984 186.356 65.556C186.131 66.128 185.867 66.622 185.563 67.038H188.748V61.929H187.201ZM194.872 60.915C195.721 60.915 196.35 61.1013 196.757 61.474C197.164 61.8467 197.368 62.4403 197.368 63.255V68H196.536L196.315 67.012H196.263C196.064 67.2633 195.856 67.4757 195.639 67.649C195.431 67.8137 195.188 67.935 194.911 68.013C194.642 68.091 194.313 68.13 193.923 68.13C193.507 68.13 193.13 68.0563 192.792 67.909C192.463 67.7617 192.203 67.5363 192.012 67.233C191.821 66.921 191.726 66.531 191.726 66.063C191.726 65.3697 191.999 64.8367 192.545 64.464C193.091 64.0827 193.932 63.8747 195.067 63.84L196.25 63.801V63.385C196.25 62.8043 196.124 62.4013 195.873 62.176C195.622 61.9507 195.266 61.838 194.807 61.838C194.443 61.838 194.096 61.8943 193.767 62.007C193.438 62.111 193.13 62.2323 192.844 62.371L192.493 61.513C192.796 61.3483 193.156 61.2097 193.572 61.097C193.988 60.9757 194.421 60.915 194.872 60.915ZM195.21 64.633C194.343 64.6677 193.741 64.8063 193.403 65.049C193.074 65.2917 192.909 65.634 192.909 66.076C192.909 66.466 193.026 66.752 193.26 66.934C193.503 67.116 193.81 67.207 194.183 67.207C194.772 67.207 195.262 67.0467 195.652 66.726C196.042 66.3967 196.237 65.894 196.237 65.218V64.594L195.21 64.633ZM200.664 61.032V63.931H204.447V61.032H205.591V68H204.447V64.893H200.664V68H199.52V61.032H200.664ZM208.941 61.032V63.931H212.724V61.032H213.868V68H212.724V64.893H208.941V68H207.797V61.032H208.941ZM216.075 68V61.032H217.219V63.892H219.026C219.632 63.892 220.131 63.9657 220.521 64.113C220.911 64.2603 221.201 64.4813 221.392 64.776C221.582 65.062 221.678 65.426 221.678 65.868C221.678 66.3013 221.582 66.6783 221.392 66.999C221.21 67.3197 220.919 67.5667 220.521 67.74C220.131 67.9133 219.615 68 218.974 68H216.075ZM218.87 67.077C219.364 67.077 219.767 66.9947 220.079 66.83C220.391 66.6567 220.547 66.3577 220.547 65.933C220.547 65.5083 220.404 65.2223 220.118 65.075C219.832 64.919 219.42 64.841 218.883 64.841H217.219V67.077H218.87ZM222.835 68V61.032H223.979V68H222.835ZM228.884 60.902C229.482 60.902 229.993 61.032 230.418 61.292C230.851 61.552 231.181 61.9203 231.406 62.397C231.64 62.865 231.757 63.4153 231.757 64.048V64.737H226.986C227.003 65.5257 227.203 66.128 227.584 66.544C227.974 66.9513 228.516 67.155 229.209 67.155C229.651 67.155 230.041 67.116 230.379 67.038C230.726 66.9513 231.081 66.83 231.445 66.674V67.675C231.09 67.831 230.739 67.9437 230.392 68.013C230.045 68.091 229.634 68.13 229.157 68.13C228.498 68.13 227.913 67.9957 227.402 67.727C226.899 67.4583 226.505 67.0597 226.219 66.531C225.942 65.9937 225.803 65.3393 225.803 64.568C225.803 63.8053 225.929 63.151 226.18 62.605C226.44 62.059 226.8 61.6387 227.259 61.344C227.727 61.0493 228.269 60.902 228.884 60.902ZM228.871 61.838C228.325 61.838 227.892 62.0157 227.571 62.371C227.259 62.7177 227.073 63.203 227.012 63.827H230.561C230.561 63.4283 230.5 63.0817 230.379 62.787C230.258 62.4923 230.071 62.2627 229.82 62.098C229.577 61.9247 229.261 61.838 228.871 61.838Z" fill="#404B34" fill-opacity="0.6"/>
<circle cx="336" cy="16" r="15.5" fill="white" stroke="#404B34"/>
<path d="M331.96 13.344C332.035 12.3627 332.413 11.5947 333.096 11.04C333.779 10.4853 334.664 10.208 335.752 10.208C336.477 10.208 337.101 10.3413 337.624 10.608C338.157 10.864 338.557 11.216 338.824 11.664C339.101 12.112 339.24 12.6187 339.24 13.184C339.24 13.8453 339.048 14.416 338.664 14.896C338.291 15.376 337.8 15.6853 337.192 15.824V15.904C337.885 16.0747 338.435 16.4107 338.84 16.912C339.245 17.4133 339.448 18.0693 339.448 18.88C339.448 19.488 339.309 20.0373 339.032 20.528C338.755 21.008 338.339 21.3867 337.784 21.664C337.229 21.9413 336.563 22.08 335.784 22.08C334.653 22.08 333.725 21.7867 333 21.2C332.275 20.6027 331.869 19.76 331.784 18.672H333.192C333.267 19.312 333.528 19.8347 333.976 20.24C334.424 20.6453 335.021 20.848 335.768 20.848C336.515 20.848 337.08 20.656 337.464 20.272C337.859 19.8773 338.056 19.3707 338.056 18.752C338.056 17.952 337.789 17.376 337.256 17.024C336.723 16.672 335.917 16.496 334.84 16.496H334.472V15.28H334.856C335.837 15.2693 336.579 15.1093 337.08 14.8C337.581 14.48 337.832 13.9893 337.832 13.328C337.832 12.7627 337.645 12.3093 337.272 11.968C336.909 11.6267 336.387 11.456 335.704 11.456C335.043 11.456 334.509 11.6267 334.104 11.968C333.699 12.3093 333.459 12.768 333.384 13.344H331.96Z" fill="#404B34"/>
<path d="M298.306 42.718V50.96H299.489V54.444H298.371V52H291.988V54.444H290.87V50.96H291.585C291.897 50.4227 292.192 49.8203 292.469 49.153C292.755 48.4857 293.006 47.788 293.223 47.06C293.44 46.3233 293.617 45.5867 293.756 44.85C293.895 44.1133 293.981 43.4027 294.016 42.718H298.306ZM295.043 43.771C295.008 44.2737 294.922 44.8413 294.783 45.474C294.653 46.1067 294.484 46.7567 294.276 47.424C294.077 48.0827 293.851 48.7197 293.6 49.335C293.357 49.9503 293.097 50.492 292.82 50.96H297.149V43.771H295.043ZM303.524 44.915C304.374 44.915 305.002 45.1013 305.409 45.474C305.817 45.8467 306.02 46.4403 306.02 47.255V52H305.188L304.967 51.012H304.915C304.716 51.2633 304.508 51.4757 304.291 51.649C304.083 51.8137 303.841 51.935 303.563 52.013C303.295 52.091 302.965 52.13 302.575 52.13C302.159 52.13 301.782 52.0563 301.444 51.909C301.115 51.7617 300.855 51.5363 300.664 51.233C300.474 50.921 300.378 50.531 300.378 50.063C300.378 49.3697 300.651 48.8367 301.197 48.464C301.743 48.0827 302.584 47.8747 303.719 47.84L304.902 47.801V47.385C304.902 46.8043 304.777 46.4013 304.525 46.176C304.274 45.9507 303.919 45.838 303.459 45.838C303.095 45.838 302.749 45.8943 302.419 46.007C302.09 46.111 301.782 46.2323 301.496 46.371L301.145 45.513C301.449 45.3483 301.808 45.2097 302.224 45.097C302.64 44.9757 303.074 44.915 303.524 44.915ZM303.862 48.633C302.996 48.6677 302.393 48.8063 302.055 49.049C301.726 49.2917 301.561 49.634 301.561 50.076C301.561 50.466 301.678 50.752 301.912 50.934C302.155 51.116 302.463 51.207 302.835 51.207C303.425 51.207 303.914 51.0467 304.304 50.726C304.694 50.3967 304.889 49.894 304.889 49.218V48.594L303.862 48.633ZM309.316 45.032V47.931H313.099V45.032H314.243V52H313.099V48.893H309.316V52H308.172V45.032H309.316ZM317.594 45.032V47.931H321.377V45.032H322.521V52H321.377V48.893H317.594V52H316.45V45.032H317.594ZM324.727 52V45.032H325.871V47.892H327.678C328.285 47.892 328.783 47.9657 329.173 48.113C329.563 48.2603 329.853 48.4813 330.044 48.776C330.235 49.062 330.33 49.426 330.33 49.868C330.33 50.3013 330.235 50.6783 330.044 50.999C329.862 51.3197 329.572 51.5667 329.173 51.74C328.783 51.9133 328.267 52 327.626 52H324.727ZM327.522 51.077C328.016 51.077 328.419 50.9947 328.731 50.83C329.043 50.6567 329.199 50.3577 329.199 49.933C329.199 49.5083 329.056 49.2223 328.77 49.075C328.484 48.919 328.072 48.841 327.535 48.841H325.871V51.077H327.522ZM331.487 52V45.032H332.631V52H331.487ZM337.536 44.902C338.134 44.902 338.646 45.032 339.07 45.292C339.504 45.552 339.833 45.9203 340.058 46.397C340.292 46.865 340.409 47.4153 340.409 48.048V48.737H335.638C335.656 49.5257 335.855 50.128 336.236 50.544C336.626 50.9513 337.168 51.155 337.861 51.155C338.303 51.155 338.693 51.116 339.031 51.038C339.378 50.9513 339.733 50.83 340.097 50.674V51.675C339.742 51.831 339.391 51.9437 339.044 52.013C338.698 52.091 338.286 52.13 337.809 52.13C337.151 52.13 336.566 51.9957 336.054 51.727C335.552 51.4583 335.157 51.0597 334.871 50.531C334.594 49.9937 334.455 49.3393 334.455 48.568C334.455 47.8053 334.581 47.151 334.832 46.605C335.092 46.059 335.452 45.6387 335.911 45.344C336.379 45.0493 336.921 44.902 337.536 44.902ZM337.523 45.838C336.977 45.838 336.544 46.0157 336.223 46.371C335.911 46.7177 335.725 47.203 335.664 47.827H339.213C339.213 47.4283 339.153 47.0817 339.031 46.787C338.91 46.4923 338.724 46.2627 338.472 46.098C338.23 45.9247 337.913 45.838 337.523 45.838ZM351.087 46.787C351.087 47.2203 350.957 47.5583 350.697 47.801C350.437 48.0437 350.103 48.2083 349.696 48.295V48.347C350.129 48.4077 350.506 48.5637 350.827 48.815C351.148 49.0577 351.308 49.439 351.308 49.959C351.308 50.2537 351.252 50.5267 351.139 50.778C351.035 51.0293 350.87 51.246 350.645 51.428C350.42 51.61 350.129 51.753 349.774 51.857C349.419 51.9523 348.99 52 348.487 52H345.484V45.032H348.474C348.968 45.032 349.41 45.0883 349.8 45.201C350.199 45.305 350.511 45.487 350.736 45.747C350.97 45.9983 351.087 46.345 351.087 46.787ZM350.125 49.959C350.125 49.5603 349.973 49.2743 349.67 49.101C349.367 48.9277 348.92 48.841 348.331 48.841H346.628V51.077H348.357C348.929 51.077 349.367 50.9947 349.67 50.83C349.973 50.6567 350.125 50.3663 350.125 49.959ZM349.93 46.93C349.93 46.6007 349.809 46.3623 349.566 46.215C349.332 46.059 348.946 45.981 348.409 45.981H346.628V47.892H348.201C348.764 47.892 349.193 47.814 349.488 47.658C349.783 47.502 349.93 47.2593 349.93 46.93ZM354.625 48.438L352.22 45.032H353.52L355.314 47.658L357.095 45.032H358.382L355.977 48.438L358.512 52H357.212L355.314 49.218L353.39 52H352.103L354.625 48.438ZM365.659 48.503C365.659 49.0837 365.581 49.5993 365.425 50.05C365.278 50.492 365.061 50.869 364.775 51.181C364.498 51.493 364.155 51.7313 363.748 51.896C363.349 52.052 362.903 52.13 362.409 52.13C361.95 52.13 361.525 52.052 361.135 51.896C360.745 51.7313 360.407 51.493 360.121 51.181C359.835 50.869 359.61 50.492 359.445 50.05C359.289 49.5993 359.211 49.0837 359.211 48.503C359.211 47.7317 359.341 47.0817 359.601 46.553C359.861 46.0157 360.234 45.6083 360.719 45.331C361.204 45.045 361.781 44.902 362.448 44.902C363.081 44.902 363.635 45.045 364.112 45.331C364.597 45.6083 364.974 46.0157 365.243 46.553C365.52 47.0817 365.659 47.7317 365.659 48.503ZM360.394 48.503C360.394 49.049 360.463 49.5257 360.602 49.933C360.749 50.3317 360.975 50.6393 361.278 50.856C361.581 51.0727 361.967 51.181 362.435 51.181C362.903 51.181 363.289 51.0727 363.592 50.856C363.895 50.6393 364.116 50.3317 364.255 49.933C364.402 49.5257 364.476 49.049 364.476 48.503C364.476 47.9483 364.402 47.476 364.255 47.086C364.108 46.696 363.882 46.397 363.579 46.189C363.284 45.9723 362.899 45.864 362.422 45.864C361.711 45.864 361.196 46.098 360.875 46.566C360.554 47.034 360.394 47.6797 360.394 48.503ZM372.646 45.032V51.038H373.66V54.418H372.555V52H367.706V54.418H366.614V51.038H367.173C367.572 50.4833 367.901 49.881 368.161 49.231C368.43 48.5723 368.629 47.8877 368.759 47.177C368.898 46.4577 368.972 45.7427 368.98 45.032H372.646ZM369.994 45.929C369.96 46.5183 369.869 47.1293 369.721 47.762C369.574 48.386 369.383 48.984 369.149 49.556C368.924 50.128 368.66 50.622 368.356 51.038H371.541V45.929H369.994ZM377.665 44.915C378.514 44.915 379.143 45.1013 379.55 45.474C379.957 45.8467 380.161 46.4403 380.161 47.255V52H379.329L379.108 51.012H379.056C378.857 51.2633 378.649 51.4757 378.432 51.649C378.224 51.8137 377.981 51.935 377.704 52.013C377.435 52.091 377.106 52.13 376.716 52.13C376.3 52.13 375.923 52.0563 375.585 51.909C375.256 51.7617 374.996 51.5363 374.805 51.233C374.614 50.921 374.519 50.531 374.519 50.063C374.519 49.3697 374.792 48.8367 375.338 48.464C375.884 48.0827 376.725 47.8747 377.86 47.84L379.043 47.801V47.385C379.043 46.8043 378.917 46.4013 378.666 46.176C378.415 45.9507 378.059 45.838 377.6 45.838C377.236 45.838 376.889 45.8943 376.56 46.007C376.231 46.111 375.923 46.2323 375.637 46.371L375.286 45.513C375.589 45.3483 375.949 45.2097 376.365 45.097C376.781 44.9757 377.214 44.915 377.665 44.915ZM378.003 48.633C377.136 48.6677 376.534 48.8063 376.196 49.049C375.867 49.2917 375.702 49.634 375.702 50.076C375.702 50.466 375.819 50.752 376.053 50.934C376.296 51.116 376.603 51.207 376.976 51.207C377.565 51.207 378.055 51.0467 378.445 50.726C378.835 50.3967 379.03 49.894 379.03 49.218V48.594L378.003 48.633Z" fill="#404B34"/>
</svg>
