<svg width="50" height="45" viewBox="0 0 50 45" fill="none" xmlns="http://www.w3.org/2000/svg">
<path id="&#208;&#178;&#208;&#176;&#209;&#130;&#209;&#134;&#208;&#176;&#208;&#191;" fill-rule="evenodd" clip-rule="evenodd" d="M42.6316 6.54C37.9525 2.325 31.7316 0.001875 25.1046 0C11.4483 0 0.333724 10.0013 0.327474 22.2975C0.325391 26.2275 1.46706 30.0637 3.63581 33.4462L0.119141 45L13.2525 41.8988C16.8712 43.6763 20.9462 44.6119 25.0921 44.6138H25.1025C38.7566 44.6138 49.8733 34.6106 49.8796 22.3144C49.8837 16.3575 47.3087 10.7531 42.6316 6.54ZM25.1046 40.8469H25.0962C21.4004 40.8469 17.7775 39.9525 14.615 38.2631L13.8629 37.8619L6.06914 39.7012L8.15039 32.8612L7.66081 32.16C5.59831 29.2088 4.51081 25.7981 4.51289 22.2975C4.51706 12.0788 13.7566 3.765 25.115 3.765C30.615 3.765 35.7858 5.69625 39.6733 9.19875C43.5608 12.7031 45.7004 17.3587 45.6983 22.3106C45.6921 32.5331 36.4546 40.8469 25.1046 40.8469ZM36.4004 26.9662C35.7816 26.6869 32.7379 25.3388 32.1691 25.1531C31.6025 24.9675 31.19 24.8737 30.7754 25.4306C30.3608 25.9875 29.1775 27.2437 28.815 27.6169C28.4546 27.9881 28.0921 28.035 27.4733 27.7556C26.8546 27.4763 24.8587 26.8894 22.4941 24.99C20.6546 23.5125 19.4108 21.6881 19.0504 21.1294C18.69 20.5706 19.0129 20.2706 19.3212 19.9931C19.6004 19.7437 19.94 19.3425 20.2504 19.0163C20.5629 18.6938 20.665 18.4613 20.8733 18.0881C21.0796 17.7169 20.9775 17.3906 20.8212 17.1112C20.665 16.8338 19.4275 14.0906 18.9129 12.975C18.4108 11.8875 17.9004 12.0356 17.5191 12.0187C17.1587 12.0019 16.7462 12 16.3316 12C15.9191 12 15.2483 12.1388 14.6816 12.6975C14.115 13.2562 12.515 14.6044 12.515 17.3456C12.515 20.0888 14.7337 22.7381 15.0421 23.1094C15.3504 23.4806 19.4066 29.1094 25.6171 31.5225C27.0941 32.0962 28.2483 32.4394 29.1462 32.6963C30.6296 33.12 31.9796 33.06 33.0462 32.9175C34.2358 32.7581 36.7087 31.5694 37.2254 30.2681C37.7421 28.9669 37.7421 27.8494 37.5858 27.6187C37.4316 27.3844 37.0191 27.2456 36.4004 26.9662Z" fill="#404B34"/>
</svg>
