<svg width="50" height="45" viewBox="0 0 50 45" fill="none" xmlns="http://www.w3.org/2000/svg">
<path id="&#208;&#178;&#208;&#186;" d="M46.4917 3.1575C42.9833 0 37.3354 0 26.0417 0H23.9583C12.6646 0 7.01667 0 3.50833 3.1575C0 6.315 0 11.3981 0 21.5625V23.4375C0 33.6019 0 38.6831 3.50833 41.8425C7.01667 45.0019 12.6646 45 23.9583 45H26.0417C37.3354 45 42.9812 45 46.4917 41.8425C50 38.685 50 33.6019 50 23.4375V21.5625C50 11.3981 50 6.315 46.4917 3.1575ZM40.6312 31.875H36.9854C35.5958 31.875 35.1875 30.8775 32.7146 28.6519C30.55 26.775 29.6229 26.5312 29.0833 26.5312C28.3479 26.5312 28.1292 26.7188 28.1292 27.6562V30.5981C28.1292 31.4044 27.8437 31.875 25.525 31.875C21.6625 31.875 17.4167 29.7638 14.4021 25.8713C9.88125 20.1694 8.64583 15.8587 8.64583 14.9906C8.64583 14.5031 8.85417 14.0625 9.89583 14.0625H13.5437C14.475 14.0625 14.825 14.43 15.175 15.3375C16.9583 20.0119 19.9667 24.0975 21.2021 24.0975C21.6646 24.0975 21.8771 23.9044 21.8771 22.8469V18.015C21.7417 15.7912 20.4271 15.6075 20.4271 14.8162C20.4271 14.4506 20.775 14.0625 21.3542 14.0625H27.0854C27.8583 14.0625 28.1271 14.4337 28.1271 15.2681V21.7687C28.1271 22.4625 28.4625 22.7062 28.6937 22.7062C29.1583 22.7062 29.5437 22.4625 30.3937 21.6975C33.0208 19.0556 34.875 14.9887 34.875 14.9887C35.1083 14.5013 35.5333 14.0606 36.4625 14.0606H40.1083C41.2104 14.0606 41.4437 14.5706 41.2104 15.2663C40.7458 17.1788 36.3042 22.8094 36.3042 22.8094C35.9167 23.3662 35.7625 23.6438 36.3042 24.27C36.6917 24.7575 37.9646 25.7306 38.8146 26.6344C40.3812 28.2206 41.5625 29.5575 41.8917 30.48C42.1958 31.4062 41.6729 31.875 40.6312 31.875Z" fill="#404B34"/>
</svg>
