<svg width="50" height="45" viewBox="0 0 50 45" fill="none" xmlns="http://www.w3.org/2000/svg">
<path id="&#209;&#130;&#208;&#179;" d="M48.1654 1.65267C47.4184 0.97227 46.489 0.476747 45.467 0.21398C44.445 -0.0487866 43.365 -0.0699153 42.3313 0.152635L8.99353 6.47154C7.07365 6.70849 5.2654 7.42309 3.77243 8.53487C2.27946 9.64665 1.16107 11.1115 0.543196 12.7643C-0.0746734 14.4172 -0.167476 16.1925 0.275238 17.8902C0.717952 19.588 1.6786 21.1408 3.049 22.3738L6.62864 25.5933C6.82238 25.7676 6.97602 25.9745 7.08078 26.2023C7.18554 26.4301 7.23935 26.6743 7.23913 26.9208V32.8609C7.24373 33.6961 7.45738 34.5197 7.86422 35.2704L7.84755 35.2835L7.90172 35.3323C8.51225 36.4369 9.5094 37.3303 10.7396 37.8748L10.7938 37.9236L10.8084 37.9086C11.6426 38.2747 12.5577 38.4669 13.4858 38.4711H20.0867C20.6389 38.4707 21.1688 38.6676 21.5598 39.0186L25.1373 42.2381C26.0969 43.1111 27.239 43.8047 28.4977 44.2787C29.7565 44.7527 31.1071 44.9979 32.4716 45C33.6088 44.9987 34.7381 44.8316 35.8158 44.505C37.6357 43.9672 39.2525 42.9825 40.4836 41.6619C41.7147 40.3413 42.5113 38.7374 42.7834 37.0311L49.8156 6.96468C50.0757 6.02648 50.0604 5.04355 49.7711 4.11229C49.4818 3.18103 48.9285 2.33345 48.1654 1.65267ZM9.57903 22.9457L5.9973 19.7262C5.16327 18.9938 4.57872 18.0624 4.31226 17.0415C4.04579 16.0205 4.10847 14.9524 4.49294 13.9624C4.86568 12.9467 5.55475 12.0487 6.47819 11.3753C7.40163 10.7018 8.52058 10.2812 9.70196 10.1635L42.7084 3.91023L11.4022 32.0866V26.9208C11.4053 26.1827 11.2458 25.4513 10.9329 24.769C10.62 24.0867 10.1598 23.467 9.57903 22.9457ZM38.6891 36.3898C38.5291 37.4254 38.0516 38.4005 37.31 39.2054C36.5684 40.0104 35.5922 40.6134 34.4909 40.9468C33.3897 41.2802 32.2069 41.3308 31.0755 41.0929C29.944 40.8549 28.9087 40.3379 28.0856 39.5999L24.5018 36.3748C23.9234 35.8514 23.2353 35.4363 22.4774 35.1538C21.7196 34.8712 20.907 34.7266 20.0867 34.7285H14.3463L45.6567 6.56154L38.6891 36.3898Z" fill="#404B34"/>
</svg>
