<svg width="50" height="83" viewBox="0 0 50 83" fill="none" xmlns="http://www.w3.org/2000/svg">
<g id="&#209;&#132;&#208;&#187;&#208;&#176;&#208;&#186;&#208;&#190;&#208;&#189;">
<path d="M17.75 1H32.25L36 5.22293V13.9172L30 28.5732V31.9268H38.5L48.5 59.8726L37 82.5H12.5L1 59.8726L11 31.9268H19.5V28.5732L13.5 13.9172V5.22293L17.75 1Z" fill="white"/>
<path d="M17.75 1V9.19745M17.75 1H32.25M17.75 1L13.5 5.22293M17.75 9.19745H32.25M17.75 9.19745L13.5 13.9172M32.25 9.19745V1M32.25 9.19745L36 13.9172M32.25 1L36 5.22293M13.5 13.9172H36M13.5 13.9172V5.22293M13.5 13.9172L19.5 28.5732M36 13.9172V5.22293M36 13.9172L30 28.5732M36 5.22293L30 20.8726M13.5 5.22293L19.5 20.8726M19.5 28.5732H30M19.5 28.5732V20.8726M19.5 28.5732V31.9268M30 28.5732V20.8726M30 28.5732V31.9268M19.5 20.8726H30M19.5 31.9268V35.2803H30V31.9268M19.5 31.9268H11M11 31.9268V39.5032M11 31.9268L1 59.8726M30 31.9268H38.5M38.5 31.9268V39.5032M38.5 31.9268L48.5 59.8726M11 39.5032H24.75H38.5M11 39.5032L1 59.8726M38.5 39.5032L48.5 59.8726M1 59.8726L12.5 82.5H37L48.5 59.8726M15 42.9809H34.5L39.5 59.1401L34.5 75.2994H15L10 59.1401L15 42.9809Z" stroke="#404B34"/>
</g>
</svg>
